<?xml version="1.0" encoding="utf-8"?>
<!-- Generator: Adobe Illustrator 13.0.0, SVG Export Plug-In . SVG Version: 6.00 Build 14948)  -->
<!DOCTYPE svg PUBLIC "-//W3C//DTD SVG 1.1//EN" "http://www.w3.org/Graphics/SVG/1.1/DTD/svg11.dtd">
<svg version="1.1" id="Layer_1" xmlns="http://www.w3.org/2000/svg" xmlns:xlink="http://www.w3.org/1999/xlink" x="0px" y="0px"
	 width="170px" height="170px" viewBox="0 0 170 170" enable-background="new 0 0 170 170" xml:space="preserve">
<path fill="#CECECE" d="M150.37,130.25c-2.45,5.66-5.351,10.87-8.71,15.66c-4.58,6.529-8.33,11.05-11.221,13.561
	c-4.479,4.119-9.279,6.229-14.42,6.35c-3.689,0-8.14-1.051-13.319-3.18c-5.197-2.121-9.974-3.17-14.341-3.17
	c-4.58,0-9.491,1.049-14.746,3.17c-5.262,2.129-9.501,3.239-12.742,3.35c-4.929,0.21-9.842-1.96-14.746-6.52
	c-3.13-2.73-7.045-7.41-11.735-14.041c-5.032-7.08-9.169-15.289-12.41-24.649c-3.471-10.11-5.211-19.9-5.211-29.378
	c0-10.857,2.346-20.221,7.045-28.068c3.693-6.303,8.606-11.275,14.755-14.925c6.149-3.65,12.793-5.51,19.948-5.629
	c3.915,0,9.049,1.211,15.429,3.591c6.362,2.388,10.447,3.599,12.239,3.599c1.338,0,5.877-1.416,13.569-4.239
	c7.274-2.618,13.415-3.702,18.445-3.275c13.63,1.1,23.87,6.473,30.68,16.153c-12.19,7.386-18.22,17.731-18.101,31.002
	c0.111,10.337,3.861,18.938,11.23,25.769c3.34,3.17,7.07,5.62,11.221,7.36C152.33,125.35,151.38,127.85,150.37,130.25L150.37,130.25
	z M119.109,7.24c0,8.102-2.959,15.667-8.859,22.669c-7.12,8.324-15.732,13.134-25.071,12.375c-0.119-0.972-0.188-1.995-0.188-3.07
	c0-7.778,3.386-16.102,9.399-22.908c3.002-3.446,6.819-6.312,11.449-8.597c4.62-2.251,8.99-3.497,13.1-3.71
	C119.061,5.082,119.109,6.165,119.109,7.24L119.109,7.24z"/>
</svg>
