<?xml version="1.0" encoding="UTF-8" standalone="no"?>
<?xml-stylesheet href="riot-svg.css" type="text/css"?><svg
   xmlns:dc="http://purl.org/dc/elements/1.1/"
   xmlns:cc="http://creativecommons.org/ns#"
   xmlns:rdf="http://www.w3.org/1999/02/22-rdf-syntax-ns#"
   xmlns:svg="http://www.w3.org/2000/svg"
   xmlns="http://www.w3.org/2000/svg"
   xmlns:xlink="http://www.w3.org/1999/xlink"
   xmlns:sodipodi="http://sodipodi.sourceforge.net/DTD/sodipodi-0.dtd"
   xmlns:inkscape="http://www.inkscape.org/namespaces/inkscape"
   width="117.7mm"
   height="80mm"
   viewBox="0 0 250 170"
   version="1.1"
   id="svg2"
   inkscape:version="0.91 r13725"
   sodipodi:docname="why-riot-1.svg">
  <sodipodi:namedview
     pagecolor="#000000"
     bordercolor="#666666"
     borderopacity="1"
     objecttolerance="10"
     gridtolerance="10"
     guidetolerance="10"
     inkscape:pageopacity="0"
     inkscape:pageshadow="2"
     inkscape:window-width="1301"
     inkscape:window-height="744"
     id="namedview59"
     showgrid="false"
     inkscape:zoom="1.4290947"
     inkscape:cx="264.54517"
     inkscape:cy="92.604391"
     inkscape:window-x="65"
     inkscape:window-y="24"
     inkscape:window-maximized="1"
     inkscape:current-layer="svg2" />
  <defs
     id="defs4">
    <style
       type="text/css"
       id="style6"><![CDATA[
        path.main, rect.main {
          fill: #40a687;
        }

        path.solid, rect.solid {
          fill: #275a4b;
          stroke: #40a687;
          stroke-width: 2px;
        }

        path.secondary, rect.secondary {
          fill: #bc202a;
        }

        path.gray, rect.gray {
          fill: #aaaaaa;
        }

        path.border, rect.border {
          fill: none;
          stroke: #ffffff;
          stroke-linecap: round;
          stroke-width: 1px;
        }

        path.alt_bg, rect.alt_bg {
          fill: #274b5a;
          fill-opacity: 0.9;
        }

        rect.legend {
          stroke: #ffffff;
          stroke-linecap: round;
          stroke-width: 1px;
        }

        text {
          font-family: 'Miso';
          font-size: 12px;
        }

        text.main {
          fill: #ffffff;
        }

        text.secondary {
          fill: #ffffff;
        }

        text.gray {
          fill: #ffffff;
        }

        text.alt_bg {
          fill: #ffffff;
        }

        text.bold {
          font-weight: bold;
        }

        text.left {
          text-anchor: start;
        }

        text.centered {
          text-anchor: middle;
        }

        text.right {
          text-anchor: end;
        }

        text.highlight {
          fill: #bc202a;
        }
      ]]></style>
  </defs>
  <metadata
     id="metadata8">
    <rdf:RDF>
      <cc:Work
         rdf:about="Provides a general overview over RIOT's GNRC Network Stack">
        <dc:format>image/svg+xml</dc:format>
        <dc:type
           rdf:resource="http://purl.org/dc/dcmitype/StillImage" />
        <dc:title></dc:title>
        <cc:license
           rdf:resource="http://creativecommons.org/licenses/by-sa/3.0/" />
        <dc:creator>
          <cc:Agent>
            <dc:title>Martine Lenders</dc:title>
          </cc:Agent>
        </dc:creator>
      </cc:Work>
      <cc:License
         rdf:about="http://creativecommons.org/licenses/by-sa/3.0/">
        <cc:permits
           rdf:resource="http://creativecommons.org/ns#Reproduction" />
        <cc:permits
           rdf:resource="http://creativecommons.org/ns#Distribution" />
        <cc:requires
           rdf:resource="http://creativecommons.org/ns#Notice" />
        <cc:requires
           rdf:resource="http://creativecommons.org/ns#Attribution" />
        <cc:permits
           rdf:resource="http://creativecommons.org/ns#DerivativeWorks" />
        <cc:requires
           rdf:resource="http://creativecommons.org/ns#ShareAlike" />
      </cc:License>
    </rdf:RDF>
  </metadata>
  <g
     id="new">
    <g
       id="traditional-inet">
      <g
         id="internet-cloud">
        <path
           class="solid"
           d="M 50,2                  a 27,12 0 0,0 -26,9                    21,11 0 0,0 -15.5,10.6                    21,11 0 0,0 15.7,10.6                    17,10.2 0,0 0 15.9,6.5                    17,10.2 0,0 0 14.3,-4.7                    16,9.8 0 0,0 2.9,0.2                    16,9.8 0 0,0 12.3,-3.5                    12.2,6.7 0,0 0 3.3,0.3                    12.2,6.7 0,0 0 12.2,-6.7                    12.2,6.7 0,0 0 0,-0.3                    26.1,9.2 0,0 0 2.9,-4.2                    26,9 0 0,0 -10,-7.3                    27,12 0 0,0 -27,-10.5 z"
           id="path13" />
        <text
           class="main centered"
           x="50"
           y="22"
           id="text15">
          <tspan
             id="tspan17">Internet</tspan>
        </text>
      </g>
      <path
         id="to-desktop-pc"
         class="border"
         d="M 43,42 38,68" />
      <path
         id="to-laptop-pc"
         class="border"
         d="M 60,40 88,118" />
      <path
         id="to-tablet"
         class="border"
         d="M 70,35 98,68" />
      <path
         id="to-phone"
         class="border"
         d="M 83,32 148,58" />
      <path
         id="to-rpi"
         class="border"
         d="M 92,22 163,28" />
      <g
         id="desktop-pc"
         transform="translate(10,70)">
        <path
           class="main"
           d="m 0,0 0,25 15,0 0,4 -5,0 0,2 20,0 0,-2 -5,0 0,-4 15,0 0,-25 -40,0 z                    m 2,2 36,0 0,21 -36,0 0,-21 z                  m 40,-2 0,31 14,0 0,-31 -10,0 z                    m 1,3 12,0 0,3 -12,0 0,-3 z                    m 0,5 12,0 0,3 -12,0 0,-3 z                    m 5,10 2,0 0,2 -2,0 0,-2 z                    m 0,3 2,0 0,2 -2,0 0,-2 z"
           id="path25" />
        <text
           class="main centered"
           x="27"
           y="42"
           id="text27">
          <tspan
             id="tspan29">&gt;8 GB</tspan>
        </text>
      </g>
      <g
         id="laptop-pc"
         transform="translate(70,120)">
        <path
           class="main"
           d="m 0,0 0,23 -4,0 0,1 1,1 42,0 1,-1 0,-1 -4,0 0,-23 -36,0 z                    m 2,2 32,0 0,20 -32,0 0,-20 z                    m 13,21 6,0 0,0.5 -6,0 0,-0.5 z"
           id="path32" />
        <text
           class="main centered"
           x="16"
           y="36"
           id="text34">
          <tspan
             id="tspan36">&gt;8 GB</tspan>
        </text>
      </g>
      <g
         id="tablet"
         transform="translate(100,70)">
        <path
           class="main"
           d="M 2,0               C 1,0 0,1 0,2 L 0,24               C 0,25 1,26 2,26 L 37,26               C 38,26 39,25 39,24 L 39,2               C 39,1 38,0 37,0 L 2,0 z                 M 4,2 36,2 36,24 4,24 4,2 z                 M 2,12                 A 1,1 0 0,1 3,13                 A 1,1 0 0,1 2,14                 A 1,1 0 0,1 1,13                 A 1,1 0 0,1 2,12 z"
           id="path39" />
        <text
           class="main centered"
           x="19"
           y="36"
           id="text41">
          <tspan
             id="tspan43">~4 GB</tspan>
        </text>
      </g>
      <g
         id="phone"
         transform="translate(150,50)">
        <path
           class="main"
           d="M 2,0               C 1,0 0,1 0,2 L 0,20               C 0,21 1,22 2,22 L 10,22               C 11,22 12,21 12,20 L 12,2               C 12,1 11,0 10,0 L 2,0 z                 M 2,1 10,1 10,1.5 2,1.5 2,1 z                 M 1,3 11,3 11,19 1,19 1,2 z                 M 2,20 10,20 10,20.5 2,20.5 2,20 z"
           id="path46" />
        <text
           class="main centered"
           x="6"
           y="32"
           id="text48">
          <tspan
             id="tspan50">1‑4 GB</tspan>
        </text>
      </g>
      <g
         id="rpi"
         transform="translate(165,20)">
        <image
           x="0"
           y="0"
           width="28"
           height="19"
           xlink:href="rpi.svg"
           id="image53"
           sodipodi:absref="rpi.svg" />
        <text
           class="main centered"
           x="14"
           y="29"
           id="text55">
          <tspan
             id="tspan57">1 GB</tspan>
        </text>
      </g>
    </g>
  </g>
</svg>
